<svg width="166" height="394" xmlns="http://www.w3.org/2000/svg">
  <style>
    .day-label { font-family: Arial, sans-serif; font-size: 10px; fill: #666; text-anchor: end; }
    .hour-label { font-family: Arial, sans-serif; font-size: 8px; fill: #666; text-anchor: middle; }
    .cell { stroke: #fff; stroke-width: 0.5; }
  </style>
  
  <!-- 背景 -->
  <rect width="166" height="394" fill="#f8f9fa"/>
  <rect x="50" y="40" width="12" height="12" 
           fill="#f5f5f5" class="cell"/>
  <rect x="50" y="54" width="12" height="12" 
           fill="#f5f5f5" class="cell"/>
  <rect x="50" y="68" width="12" height="12" 
           fill="#f5f5f5" class="cell"/>
  <rect x="50" y="82" width="12" height="12" 
           fill="#f5f5f5" class="cell"/>
  <rect x="50" y="96" width="12" height="12" 
           fill="#f5f5f5" class="cell"/>
  <rect x="50" y="110" width="12" height="12" 
           fill="#f5f5f5" class="cell"/>
  <rect x="50" y="124" width="12" height="12" 
           fill="#f5f5f5" class="cell"/>
  <rect x="50" y="138" width="12" height="12" 
           fill="#f5f5f5" class="cell"/>
  <rect x="50" y="152" width="12" height="12" 
           fill="#f5f5f5" class="cell"/>
  <rect x="50" y="166" width="12" height="12" 
           fill="#ffeb3b" class="cell"/>
  <rect x="50" y="180" width="12" height="12" 
           fill="#ffa726" class="cell"/>
  <rect x="50" y="194" width="12" height="12" 
           fill="#ffa726" class="cell"/>
  <rect x="50" y="208" width="12" height="12" 
           fill="#f5f5f5" class="cell"/>
  <rect x="50" y="222" width="12" height="12" 
           fill="#f5f5f5" class="cell"/>
  <rect x="50" y="236" width="12" height="12" 
           fill="#66bb6a" class="cell"/>
  <rect x="50" y="250" width="12" height="12" 
           fill="#ffeb3b" class="cell"/>
  <rect x="50" y="264" width="12" height="12" 
           fill="#f5f5f5" class="cell"/>
  <rect x="50" y="278" width="12" height="12" 
           fill="#f5f5f5" class="cell"/>
  <rect x="50" y="292" width="12" height="12" 
           fill="#f5f5f5" class="cell"/>
  <rect x="50" y="306" width="12" height="12" 
           fill="#f5f5f5" class="cell"/>
  <rect x="50" y="320" width="12" height="12" 
           fill="#ff6b6b" class="cell"/>
  <rect x="50" y="334" width="12" height="12" 
           fill="#ffa726" class="cell"/>
  <rect x="50" y="348" width="12" height="12" 
           fill="#f5f5f5" class="cell"/>
  <rect x="50" y="362" width="12" height="12" 
           fill="#f5f5f5" class="cell"/>
  <rect x="64" y="40" width="12" height="12" 
           fill="#f5f5f5" class="cell"/>
  <rect x="64" y="54" width="12" height="12" 
           fill="#f5f5f5" class="cell"/>
  <rect x="64" y="68" width="12" height="12" 
           fill="#f5f5f5" class="cell"/>
  <rect x="64" y="82" width="12" height="12" 
           fill="#f5f5f5" class="cell"/>
  <rect x="64" y="96" width="12" height="12" 
           fill="#f5f5f5" class="cell"/>
  <rect x="64" y="110" width="12" height="12" 
           fill="#f5f5f5" class="cell"/>
  <rect x="64" y="124" width="12" height="12" 
           fill="#f5f5f5" class="cell"/>
  <rect x="64" y="138" width="12" height="12" 
           fill="#f5f5f5" class="cell"/>
  <rect x="64" y="152" width="12" height="12" 
           fill="#ffa726" class="cell"/>
  <rect x="64" y="166" width="12" height="12" 
           fill="#ff6b6b" class="cell"/>
  <rect x="64" y="180" width="12" height="12" 
           fill="#ffa726" class="cell"/>
  <rect x="64" y="194" width="12" height="12" 
           fill="#f5f5f5" class="cell"/>
  <rect x="64" y="208" width="12" height="12" 
           fill="#f5f5f5" class="cell"/>
  <rect x="64" y="222" width="12" height="12" 
           fill="#f5f5f5" class="cell"/>
  <rect x="64" y="236" width="12" height="12" 
           fill="#f5f5f5" class="cell"/>
  <rect x="64" y="250" width="12" height="12" 
           fill="#ffeb3b" class="cell"/>
  <rect x="64" y="264" width="12" height="12" 
           fill="#66bb6a" class="cell"/>
  <rect x="64" y="278" width="12" height="12" 
           fill="#f5f5f5" class="cell"/>
  <rect x="64" y="292" width="12" height="12" 
           fill="#f5f5f5" class="cell"/>
  <rect x="64" y="306" width="12" height="12" 
           fill="#ffa726" class="cell"/>
  <rect x="64" y="320" width="12" height="12" 
           fill="#ffeb3b" class="cell"/>
  <rect x="64" y="334" width="12" height="12" 
           fill="#f5f5f5" class="cell"/>
  <rect x="64" y="348" width="12" height="12" 
           fill="#f5f5f5" class="cell"/>
  <rect x="64" y="362" width="12" height="12" 
           fill="#f5f5f5" class="cell"/>
  <rect x="78" y="40" width="12" height="12" 
           fill="#f5f5f5" class="cell"/>
  <rect x="78" y="54" width="12" height="12" 
           fill="#f5f5f5" class="cell"/>
  <rect x="78" y="68" width="12" height="12" 
           fill="#f5f5f5" class="cell"/>
  <rect x="78" y="82" width="12" height="12" 
           fill="#f5f5f5" class="cell"/>
  <rect x="78" y="96" width="12" height="12" 
           fill="#f5f5f5" class="cell"/>
  <rect x="78" y="110" width="12" height="12" 
           fill="#f5f5f5" class="cell"/>
  <rect x="78" y="124" width="12" height="12" 
           fill="#f5f5f5" class="cell"/>
  <rect x="78" y="138" width="12" height="12" 
           fill="#f5f5f5" class="cell"/>
  <rect x="78" y="152" width="12" height="12" 
           fill="#f5f5f5" class="cell"/>
  <rect x="78" y="166" width="12" height="12" 
           fill="#ffeb3b" class="cell"/>
  <rect x="78" y="180" width="12" height="12" 
           fill="#ffa726" class="cell"/>
  <rect x="78" y="194" width="12" height="12" 
           fill="#ffeb3b" class="cell"/>
  <rect x="78" y="208" width="12" height="12" 
           fill="#f5f5f5" class="cell"/>
  <rect x="78" y="222" width="12" height="12" 
           fill="#f5f5f5" class="cell"/>
  <rect x="78" y="236" width="12" height="12" 
           fill="#ffa726" class="cell"/>
  <rect x="78" y="250" width="12" height="12" 
           fill="#ff6b6b" class="cell"/>
  <rect x="78" y="264" width="12" height="12" 
           fill="#ffeb3b" class="cell"/>
  <rect x="78" y="278" width="12" height="12" 
           fill="#f5f5f5" class="cell"/>
  <rect x="78" y="292" width="12" height="12" 
           fill="#f5f5f5" class="cell"/>
  <rect x="78" y="306" width="12" height="12" 
           fill="#f5f5f5" class="cell"/>
  <rect x="78" y="320" width="12" height="12" 
           fill="#f5f5f5" class="cell"/>
  <rect x="78" y="334" width="12" height="12" 
           fill="#66bb6a" class="cell"/>
  <rect x="78" y="348" width="12" height="12" 
           fill="#f5f5f5" class="cell"/>
  <rect x="78" y="362" width="12" height="12" 
           fill="#f5f5f5" class="cell"/>
  <rect x="92" y="40" width="12" height="12" 
           fill="#f5f5f5" class="cell"/>
  <rect x="92" y="54" width="12" height="12" 
           fill="#f5f5f5" class="cell"/>
  <rect x="92" y="68" width="12" height="12" 
           fill="#f5f5f5" class="cell"/>
  <rect x="92" y="82" width="12" height="12" 
           fill="#f5f5f5" class="cell"/>
  <rect x="92" y="96" width="12" height="12" 
           fill="#f5f5f5" class="cell"/>
  <rect x="92" y="110" width="12" height="12" 
           fill="#f5f5f5" class="cell"/>
  <rect x="92" y="124" width="12" height="12" 
           fill="#f5f5f5" class="cell"/>
  <rect x="92" y="138" width="12" height="12" 
           fill="#f5f5f5" class="cell"/>
  <rect x="92" y="152" width="12" height="12" 
           fill="#ffeb3b" class="cell"/>
  <rect x="92" y="166" width="12" height="12" 
           fill="#ffa726" class="cell"/>
  <rect x="92" y="180" width="12" height="12" 
           fill="#ff6b6b" class="cell"/>
  <rect x="92" y="194" width="12" height="12" 
           fill="#ffa726" class="cell"/>
  <rect x="92" y="208" width="12" height="12" 
           fill="#f5f5f5" class="cell"/>
  <rect x="92" y="222" width="12" height="12" 
           fill="#f5f5f5" class="cell"/>
  <rect x="92" y="236" width="12" height="12" 
           fill="#f5f5f5" class="cell"/>
  <rect x="92" y="250" width="12" height="12" 
           fill="#ffeb3b" class="cell"/>
  <rect x="92" y="264" width="12" height="12" 
           fill="#f5f5f5" class="cell"/>
  <rect x="92" y="278" width="12" height="12" 
           fill="#f5f5f5" class="cell"/>
  <rect x="92" y="292" width="12" height="12" 
           fill="#f5f5f5" class="cell"/>
  <rect x="92" y="306" width="12" height="12" 
           fill="#ffa726" class="cell"/>
  <rect x="92" y="320" width="12" height="12" 
           fill="#ff6b6b" class="cell"/>
  <rect x="92" y="334" width="12" height="12" 
           fill="#f5f5f5" class="cell"/>
  <rect x="92" y="348" width="12" height="12" 
           fill="#f5f5f5" class="cell"/>
  <rect x="92" y="362" width="12" height="12" 
           fill="#f5f5f5" class="cell"/>
  <rect x="106" y="40" width="12" height="12" 
           fill="#f5f5f5" class="cell"/>
  <rect x="106" y="54" width="12" height="12" 
           fill="#f5f5f5" class="cell"/>
  <rect x="106" y="68" width="12" height="12" 
           fill="#f5f5f5" class="cell"/>
  <rect x="106" y="82" width="12" height="12" 
           fill="#f5f5f5" class="cell"/>
  <rect x="106" y="96" width="12" height="12" 
           fill="#f5f5f5" class="cell"/>
  <rect x="106" y="110" width="12" height="12" 
           fill="#f5f5f5" class="cell"/>
  <rect x="106" y="124" width="12" height="12" 
           fill="#f5f5f5" class="cell"/>
  <rect x="106" y="138" width="12" height="12" 
           fill="#f5f5f5" class="cell"/>
  <rect x="106" y="152" width="12" height="12" 
           fill="#f5f5f5" class="cell"/>
  <rect x="106" y="166" width="12" height="12" 
           fill="#ffa726" class="cell"/>
  <rect x="106" y="180" width="12" height="12" 
           fill="#ffeb3b" class="cell"/>
  <rect x="106" y="194" width="12" height="12" 
           fill="#ffa726" class="cell"/>
  <rect x="106" y="208" width="12" height="12" 
           fill="#f5f5f5" class="cell"/>
  <rect x="106" y="222" width="12" height="12" 
           fill="#f5f5f5" class="cell"/>
  <rect x="106" y="236" width="12" height="12" 
           fill="#ff6b6b" class="cell"/>
  <rect x="106" y="250" width="12" height="12" 
           fill="#ffa726" class="cell"/>
  <rect x="106" y="264" width="12" height="12" 
           fill="#ffeb3b" class="cell"/>
  <rect x="106" y="278" width="12" height="12" 
           fill="#f5f5f5" class="cell"/>
  <rect x="106" y="292" width="12" height="12" 
           fill="#66bb6a" class="cell"/>
  <rect x="106" y="306" width="12" height="12" 
           fill="#f5f5f5" class="cell"/>
  <rect x="106" y="320" width="12" height="12" 
           fill="#f5f5f5" class="cell"/>
  <rect x="106" y="334" width="12" height="12" 
           fill="#f5f5f5" class="cell"/>
  <rect x="106" y="348" width="12" height="12" 
           fill="#f5f5f5" class="cell"/>
  <rect x="106" y="362" width="12" height="12" 
           fill="#f5f5f5" class="cell"/>
  <rect x="120" y="40" width="12" height="12" 
           fill="#f5f5f5" class="cell"/>
  <rect x="120" y="54" width="12" height="12" 
           fill="#f5f5f5" class="cell"/>
  <rect x="120" y="68" width="12" height="12" 
           fill="#f5f5f5" class="cell"/>
  <rect x="120" y="82" width="12" height="12" 
           fill="#f5f5f5" class="cell"/>
  <rect x="120" y="96" width="12" height="12" 
           fill="#f5f5f5" class="cell"/>
  <rect x="120" y="110" width="12" height="12" 
           fill="#f5f5f5" class="cell"/>
  <rect x="120" y="124" width="12" height="12" 
           fill="#f5f5f5" class="cell"/>
  <rect x="120" y="138" width="12" height="12" 
           fill="#f5f5f5" class="cell"/>
  <rect x="120" y="152" width="12" height="12" 
           fill="#f5f5f5" class="cell"/>
  <rect x="120" y="166" width="12" height="12" 
           fill="#f5f5f5" class="cell"/>
  <rect x="120" y="180" width="12" height="12" 
           fill="#66bb6a" class="cell"/>
  <rect x="120" y="194" width="12" height="12" 
           fill="#ffeb3b" class="cell"/>
  <rect x="120" y="208" width="12" height="12" 
           fill="#f5f5f5" class="cell"/>
  <rect x="120" y="222" width="12" height="12" 
           fill="#f5f5f5" class="cell"/>
  <rect x="120" y="236" width="12" height="12" 
           fill="#ffa726" class="cell"/>
  <rect x="120" y="250" width="12" height="12" 
           fill="#ffeb3b" class="cell"/>
  <rect x="120" y="264" width="12" height="12" 
           fill="#f5f5f5" class="cell"/>
  <rect x="120" y="278" width="12" height="12" 
           fill="#f5f5f5" class="cell"/>
  <rect x="120" y="292" width="12" height="12" 
           fill="#f5f5f5" class="cell"/>
  <rect x="120" y="306" width="12" height="12" 
           fill="#f5f5f5" class="cell"/>
  <rect x="120" y="320" width="12" height="12" 
           fill="#66bb6a" class="cell"/>
  <rect x="120" y="334" width="12" height="12" 
           fill="#f5f5f5" class="cell"/>
  <rect x="120" y="348" width="12" height="12" 
           fill="#f5f5f5" class="cell"/>
  <rect x="120" y="362" width="12" height="12" 
           fill="#f5f5f5" class="cell"/>
  <rect x="134" y="40" width="12" height="12" 
           fill="#f5f5f5" class="cell"/>
  <rect x="134" y="54" width="12" height="12" 
           fill="#f5f5f5" class="cell"/>
  <rect x="134" y="68" width="12" height="12" 
           fill="#f5f5f5" class="cell"/>
  <rect x="134" y="82" width="12" height="12" 
           fill="#f5f5f5" class="cell"/>
  <rect x="134" y="96" width="12" height="12" 
           fill="#f5f5f5" class="cell"/>
  <rect x="134" y="110" width="12" height="12" 
           fill="#f5f5f5" class="cell"/>
  <rect x="134" y="124" width="12" height="12" 
           fill="#f5f5f5" class="cell"/>
  <rect x="134" y="138" width="12" height="12" 
           fill="#f5f5f5" class="cell"/>
  <rect x="134" y="152" width="12" height="12" 
           fill="#f5f5f5" class="cell"/>
  <rect x="134" y="166" width="12" height="12" 
           fill="#66bb6a" class="cell"/>
  <rect x="134" y="180" width="12" height="12" 
           fill="#ffeb3b" class="cell"/>
  <rect x="134" y="194" width="12" height="12" 
           fill="#f5f5f5" class="cell"/>
  <rect x="134" y="208" width="12" height="12" 
           fill="#f5f5f5" class="cell"/>
  <rect x="134" y="222" width="12" height="12" 
           fill="#f5f5f5" class="cell"/>
  <rect x="134" y="236" width="12" height="12" 
           fill="#ffeb3b" class="cell"/>
  <rect x="134" y="250" width="12" height="12" 
           fill="#66bb6a" class="cell"/>
  <rect x="134" y="264" width="12" height="12" 
           fill="#f5f5f5" class="cell"/>
  <rect x="134" y="278" width="12" height="12" 
           fill="#f5f5f5" class="cell"/>
  <rect x="134" y="292" width="12" height="12" 
           fill="#f5f5f5" class="cell"/>
  <rect x="134" y="306" width="12" height="12" 
           fill="#e0e0e0" class="cell"/>
  <rect x="134" y="320" width="12" height="12" 
           fill="#66bb6a" class="cell"/>
  <rect x="134" y="334" width="12" height="12" 
           fill="#f5f5f5" class="cell"/>
  <rect x="134" y="348" width="12" height="12" 
           fill="#f5f5f5" class="cell"/>
  <rect x="134" y="362" width="12" height="12" 
           fill="#f5f5f5" class="cell"/>
  <text x="56" y="35" class="day-label" text-anchor="middle">Mon</text>
  <text x="70" y="35" class="day-label" text-anchor="middle">Tue</text>
  <text x="84" y="35" class="day-label" text-anchor="middle">Wed</text>
  <text x="98" y="35" class="day-label" text-anchor="middle">Thu</text>
  <text x="112" y="35" class="day-label" text-anchor="middle">Fri</text>
  <text x="126" y="35" class="day-label" text-anchor="middle">Sat</text>
  <text x="140" y="35" class="day-label" text-anchor="middle">Sun</text>
  <text x="45" y="49" class="hour-label" text-anchor="end">0</text>
  <text x="45" y="63" class="hour-label" text-anchor="end">1</text>
  <text x="45" y="77" class="hour-label" text-anchor="end">2</text>
  <text x="45" y="91" class="hour-label" text-anchor="end">3</text>
  <text x="45" y="105" class="hour-label" text-anchor="end">4</text>
  <text x="45" y="119" class="hour-label" text-anchor="end">5</text>
  <text x="45" y="133" class="hour-label" text-anchor="end">6</text>
  <text x="45" y="147" class="hour-label" text-anchor="end">7</text>
  <text x="45" y="161" class="hour-label" text-anchor="end">8</text>
  <text x="45" y="175" class="hour-label" text-anchor="end">9</text>
  <text x="45" y="189" class="hour-label" text-anchor="end">10</text>
  <text x="45" y="203" class="hour-label" text-anchor="end">11</text>
  <text x="45" y="217" class="hour-label" text-anchor="end">12</text>
  <text x="45" y="231" class="hour-label" text-anchor="end">13</text>
  <text x="45" y="245" class="hour-label" text-anchor="end">14</text>
  <text x="45" y="259" class="hour-label" text-anchor="end">15</text>
  <text x="45" y="273" class="hour-label" text-anchor="end">16</text>
  <text x="45" y="287" class="hour-label" text-anchor="end">17</text>
  <text x="45" y="301" class="hour-label" text-anchor="end">18</text>
  <text x="45" y="315" class="hour-label" text-anchor="end">19</text>
  <text x="45" y="329" class="hour-label" text-anchor="end">20</text>
  <text x="45" y="343" class="hour-label" text-anchor="end">21</text>
  <text x="45" y="357" class="hour-label" text-anchor="end">22</text>
  <text x="45" y="371" class="hour-label" text-anchor="end">23</text>
</svg>