<svg width="404" height="156" xmlns="http://www.w3.org/2000/svg">
  <style>
    .day-label { font-family: Arial, sans-serif; font-size: 10px; fill: #666; text-anchor: end; }
    .hour-label { font-family: Arial, sans-serif; font-size: 8px; fill: #666; text-anchor: middle; }
    .cell { stroke: #fff; stroke-width: 0.5; }
  </style>
  
  <!-- 背景 -->
  <rect width="404" height="156" fill="#f8f9fa"/>
  
  <!-- 曜日ラベル -->
  <text x="25" y="46" class="day-label">Mon</text>
  <text x="25" y="60" class="day-label">Tue</text>
  <text x="25" y="74" class="day-label">Wed</text>
  <text x="25" y="88" class="day-label">Thu</text>
  <text x="25" y="102" class="day-label">Fri</text>
  <text x="25" y="116" class="day-label">Sat</text>
  <text x="25" y="130" class="day-label">Sun</text>
  <text x="56" y="15" class="hour-label">0</text>
  <text x="70" y="15" class="hour-label">1</text>
  <text x="84" y="15" class="hour-label">2</text>
  <text x="98" y="15" class="hour-label">3</text>
  <text x="112" y="15" class="hour-label">4</text>
  <text x="126" y="15" class="hour-label">5</text>
  <text x="140" y="15" class="hour-label">6</text>
  <text x="154" y="15" class="hour-label">7</text>
  <text x="168" y="15" class="hour-label">8</text>
  <text x="182" y="15" class="hour-label">9</text>
  <text x="196" y="15" class="hour-label">10</text>
  <text x="210" y="15" class="hour-label">11</text>
  <text x="224" y="15" class="hour-label">12</text>
  <text x="238" y="15" class="hour-label">13</text>
  <text x="252" y="15" class="hour-label">14</text>
  <text x="266" y="15" class="hour-label">15</text>
  <text x="280" y="15" class="hour-label">16</text>
  <text x="294" y="15" class="hour-label">17</text>
  <text x="308" y="15" class="hour-label">18</text>
  <text x="322" y="15" class="hour-label">19</text>
  <text x="336" y="15" class="hour-label">20</text>
  <text x="350" y="15" class="hour-label">21</text>
  <text x="364" y="15" class="hour-label">22</text>
  <text x="378" y="15" class="hour-label">23</text>
  <rect x="50" y="40" width="12" height="12" 
           fill="#f5f5f5" class="cell"/>
  <rect x="64" y="40" width="12" height="12" 
           fill="#f5f5f5" class="cell"/>
  <rect x="78" y="40" width="12" height="12" 
           fill="#f5f5f5" class="cell"/>
  <rect x="92" y="40" width="12" height="12" 
           fill="#f5f5f5" class="cell"/>
  <rect x="106" y="40" width="12" height="12" 
           fill="#f5f5f5" class="cell"/>
  <rect x="120" y="40" width="12" height="12" 
           fill="#f5f5f5" class="cell"/>
  <rect x="134" y="40" width="12" height="12" 
           fill="#f5f5f5" class="cell"/>
  <rect x="148" y="40" width="12" height="12" 
           fill="#f5f5f5" class="cell"/>
  <rect x="162" y="40" width="12" height="12" 
           fill="#f5f5f5" class="cell"/>
  <rect x="176" y="40" width="12" height="12" 
           fill="#ffeb3b" class="cell"/>
  <rect x="190" y="40" width="12" height="12" 
           fill="#ffa726" class="cell"/>
  <rect x="204" y="40" width="12" height="12" 
           fill="#ffa726" class="cell"/>
  <rect x="218" y="40" width="12" height="12" 
           fill="#f5f5f5" class="cell"/>
  <rect x="232" y="40" width="12" height="12" 
           fill="#f5f5f5" class="cell"/>
  <rect x="246" y="40" width="12" height="12" 
           fill="#66bb6a" class="cell"/>
  <rect x="260" y="40" width="12" height="12" 
           fill="#ffeb3b" class="cell"/>
  <rect x="274" y="40" width="12" height="12" 
           fill="#f5f5f5" class="cell"/>
  <rect x="288" y="40" width="12" height="12" 
           fill="#f5f5f5" class="cell"/>
  <rect x="302" y="40" width="12" height="12" 
           fill="#f5f5f5" class="cell"/>
  <rect x="316" y="40" width="12" height="12" 
           fill="#f5f5f5" class="cell"/>
  <rect x="330" y="40" width="12" height="12" 
           fill="#ff6b6b" class="cell"/>
  <rect x="344" y="40" width="12" height="12" 
           fill="#ffa726" class="cell"/>
  <rect x="358" y="40" width="12" height="12" 
           fill="#f5f5f5" class="cell"/>
  <rect x="372" y="40" width="12" height="12" 
           fill="#f5f5f5" class="cell"/>
  <rect x="50" y="54" width="12" height="12" 
           fill="#f5f5f5" class="cell"/>
  <rect x="64" y="54" width="12" height="12" 
           fill="#f5f5f5" class="cell"/>
  <rect x="78" y="54" width="12" height="12" 
           fill="#f5f5f5" class="cell"/>
  <rect x="92" y="54" width="12" height="12" 
           fill="#f5f5f5" class="cell"/>
  <rect x="106" y="54" width="12" height="12" 
           fill="#f5f5f5" class="cell"/>
  <rect x="120" y="54" width="12" height="12" 
           fill="#f5f5f5" class="cell"/>
  <rect x="134" y="54" width="12" height="12" 
           fill="#f5f5f5" class="cell"/>
  <rect x="148" y="54" width="12" height="12" 
           fill="#f5f5f5" class="cell"/>
  <rect x="162" y="54" width="12" height="12" 
           fill="#ffa726" class="cell"/>
  <rect x="176" y="54" width="12" height="12" 
           fill="#ff6b6b" class="cell"/>
  <rect x="190" y="54" width="12" height="12" 
           fill="#ffa726" class="cell"/>
  <rect x="204" y="54" width="12" height="12" 
           fill="#f5f5f5" class="cell"/>
  <rect x="218" y="54" width="12" height="12" 
           fill="#f5f5f5" class="cell"/>
  <rect x="232" y="54" width="12" height="12" 
           fill="#f5f5f5" class="cell"/>
  <rect x="246" y="54" width="12" height="12" 
           fill="#f5f5f5" class="cell"/>
  <rect x="260" y="54" width="12" height="12" 
           fill="#ffeb3b" class="cell"/>
  <rect x="274" y="54" width="12" height="12" 
           fill="#66bb6a" class="cell"/>
  <rect x="288" y="54" width="12" height="12" 
           fill="#f5f5f5" class="cell"/>
  <rect x="302" y="54" width="12" height="12" 
           fill="#f5f5f5" class="cell"/>
  <rect x="316" y="54" width="12" height="12" 
           fill="#ffa726" class="cell"/>
  <rect x="330" y="54" width="12" height="12" 
           fill="#ffeb3b" class="cell"/>
  <rect x="344" y="54" width="12" height="12" 
           fill="#f5f5f5" class="cell"/>
  <rect x="358" y="54" width="12" height="12" 
           fill="#f5f5f5" class="cell"/>
  <rect x="372" y="54" width="12" height="12" 
           fill="#f5f5f5" class="cell"/>
  <rect x="50" y="68" width="12" height="12" 
           fill="#f5f5f5" class="cell"/>
  <rect x="64" y="68" width="12" height="12" 
           fill="#f5f5f5" class="cell"/>
  <rect x="78" y="68" width="12" height="12" 
           fill="#f5f5f5" class="cell"/>
  <rect x="92" y="68" width="12" height="12" 
           fill="#f5f5f5" class="cell"/>
  <rect x="106" y="68" width="12" height="12" 
           fill="#f5f5f5" class="cell"/>
  <rect x="120" y="68" width="12" height="12" 
           fill="#f5f5f5" class="cell"/>
  <rect x="134" y="68" width="12" height="12" 
           fill="#f5f5f5" class="cell"/>
  <rect x="148" y="68" width="12" height="12" 
           fill="#f5f5f5" class="cell"/>
  <rect x="162" y="68" width="12" height="12" 
           fill="#f5f5f5" class="cell"/>
  <rect x="176" y="68" width="12" height="12" 
           fill="#ffeb3b" class="cell"/>
  <rect x="190" y="68" width="12" height="12" 
           fill="#ffa726" class="cell"/>
  <rect x="204" y="68" width="12" height="12" 
           fill="#ffeb3b" class="cell"/>
  <rect x="218" y="68" width="12" height="12" 
           fill="#f5f5f5" class="cell"/>
  <rect x="232" y="68" width="12" height="12" 
           fill="#f5f5f5" class="cell"/>
  <rect x="246" y="68" width="12" height="12" 
           fill="#ffa726" class="cell"/>
  <rect x="260" y="68" width="12" height="12" 
           fill="#ff6b6b" class="cell"/>
  <rect x="274" y="68" width="12" height="12" 
           fill="#ffeb3b" class="cell"/>
  <rect x="288" y="68" width="12" height="12" 
           fill="#f5f5f5" class="cell"/>
  <rect x="302" y="68" width="12" height="12" 
           fill="#f5f5f5" class="cell"/>
  <rect x="316" y="68" width="12" height="12" 
           fill="#f5f5f5" class="cell"/>
  <rect x="330" y="68" width="12" height="12" 
           fill="#f5f5f5" class="cell"/>
  <rect x="344" y="68" width="12" height="12" 
           fill="#66bb6a" class="cell"/>
  <rect x="358" y="68" width="12" height="12" 
           fill="#f5f5f5" class="cell"/>
  <rect x="372" y="68" width="12" height="12" 
           fill="#f5f5f5" class="cell"/>
  <rect x="50" y="82" width="12" height="12" 
           fill="#f5f5f5" class="cell"/>
  <rect x="64" y="82" width="12" height="12" 
           fill="#f5f5f5" class="cell"/>
  <rect x="78" y="82" width="12" height="12" 
           fill="#f5f5f5" class="cell"/>
  <rect x="92" y="82" width="12" height="12" 
           fill="#f5f5f5" class="cell"/>
  <rect x="106" y="82" width="12" height="12" 
           fill="#f5f5f5" class="cell"/>
  <rect x="120" y="82" width="12" height="12" 
           fill="#f5f5f5" class="cell"/>
  <rect x="134" y="82" width="12" height="12" 
           fill="#f5f5f5" class="cell"/>
  <rect x="148" y="82" width="12" height="12" 
           fill="#f5f5f5" class="cell"/>
  <rect x="162" y="82" width="12" height="12" 
           fill="#ffeb3b" class="cell"/>
  <rect x="176" y="82" width="12" height="12" 
           fill="#ffa726" class="cell"/>
  <rect x="190" y="82" width="12" height="12" 
           fill="#ff6b6b" class="cell"/>
  <rect x="204" y="82" width="12" height="12" 
           fill="#ffa726" class="cell"/>
  <rect x="218" y="82" width="12" height="12" 
           fill="#f5f5f5" class="cell"/>
  <rect x="232" y="82" width="12" height="12" 
           fill="#f5f5f5" class="cell"/>
  <rect x="246" y="82" width="12" height="12" 
           fill="#f5f5f5" class="cell"/>
  <rect x="260" y="82" width="12" height="12" 
           fill="#ffeb3b" class="cell"/>
  <rect x="274" y="82" width="12" height="12" 
           fill="#f5f5f5" class="cell"/>
  <rect x="288" y="82" width="12" height="12" 
           fill="#f5f5f5" class="cell"/>
  <rect x="302" y="82" width="12" height="12" 
           fill="#f5f5f5" class="cell"/>
  <rect x="316" y="82" width="12" height="12" 
           fill="#ffa726" class="cell"/>
  <rect x="330" y="82" width="12" height="12" 
           fill="#ff6b6b" class="cell"/>
  <rect x="344" y="82" width="12" height="12" 
           fill="#f5f5f5" class="cell"/>
  <rect x="358" y="82" width="12" height="12" 
           fill="#f5f5f5" class="cell"/>
  <rect x="372" y="82" width="12" height="12" 
           fill="#f5f5f5" class="cell"/>
  <rect x="50" y="96" width="12" height="12" 
           fill="#f5f5f5" class="cell"/>
  <rect x="64" y="96" width="12" height="12" 
           fill="#f5f5f5" class="cell"/>
  <rect x="78" y="96" width="12" height="12" 
           fill="#f5f5f5" class="cell"/>
  <rect x="92" y="96" width="12" height="12" 
           fill="#f5f5f5" class="cell"/>
  <rect x="106" y="96" width="12" height="12" 
           fill="#f5f5f5" class="cell"/>
  <rect x="120" y="96" width="12" height="12" 
           fill="#f5f5f5" class="cell"/>
  <rect x="134" y="96" width="12" height="12" 
           fill="#f5f5f5" class="cell"/>
  <rect x="148" y="96" width="12" height="12" 
           fill="#f5f5f5" class="cell"/>
  <rect x="162" y="96" width="12" height="12" 
           fill="#f5f5f5" class="cell"/>
  <rect x="176" y="96" width="12" height="12" 
           fill="#ffa726" class="cell"/>
  <rect x="190" y="96" width="12" height="12" 
           fill="#ffeb3b" class="cell"/>
  <rect x="204" y="96" width="12" height="12" 
           fill="#ffa726" class="cell"/>
  <rect x="218" y="96" width="12" height="12" 
           fill="#f5f5f5" class="cell"/>
  <rect x="232" y="96" width="12" height="12" 
           fill="#f5f5f5" class="cell"/>
  <rect x="246" y="96" width="12" height="12" 
           fill="#ff6b6b" class="cell"/>
  <rect x="260" y="96" width="12" height="12" 
           fill="#ffa726" class="cell"/>
  <rect x="274" y="96" width="12" height="12" 
           fill="#ffeb3b" class="cell"/>
  <rect x="288" y="96" width="12" height="12" 
           fill="#f5f5f5" class="cell"/>
  <rect x="302" y="96" width="12" height="12" 
           fill="#66bb6a" class="cell"/>
  <rect x="316" y="96" width="12" height="12" 
           fill="#f5f5f5" class="cell"/>
  <rect x="330" y="96" width="12" height="12" 
           fill="#f5f5f5" class="cell"/>
  <rect x="344" y="96" width="12" height="12" 
           fill="#f5f5f5" class="cell"/>
  <rect x="358" y="96" width="12" height="12" 
           fill="#f5f5f5" class="cell"/>
  <rect x="372" y="96" width="12" height="12" 
           fill="#f5f5f5" class="cell"/>
  <rect x="50" y="110" width="12" height="12" 
           fill="#f5f5f5" class="cell"/>
  <rect x="64" y="110" width="12" height="12" 
           fill="#f5f5f5" class="cell"/>
  <rect x="78" y="110" width="12" height="12" 
           fill="#f5f5f5" class="cell"/>
  <rect x="92" y="110" width="12" height="12" 
           fill="#f5f5f5" class="cell"/>
  <rect x="106" y="110" width="12" height="12" 
           fill="#f5f5f5" class="cell"/>
  <rect x="120" y="110" width="12" height="12" 
           fill="#f5f5f5" class="cell"/>
  <rect x="134" y="110" width="12" height="12" 
           fill="#f5f5f5" class="cell"/>
  <rect x="148" y="110" width="12" height="12" 
           fill="#f5f5f5" class="cell"/>
  <rect x="162" y="110" width="12" height="12" 
           fill="#f5f5f5" class="cell"/>
  <rect x="176" y="110" width="12" height="12" 
           fill="#f5f5f5" class="cell"/>
  <rect x="190" y="110" width="12" height="12" 
           fill="#66bb6a" class="cell"/>
  <rect x="204" y="110" width="12" height="12" 
           fill="#ffeb3b" class="cell"/>
  <rect x="218" y="110" width="12" height="12" 
           fill="#f5f5f5" class="cell"/>
  <rect x="232" y="110" width="12" height="12" 
           fill="#f5f5f5" class="cell"/>
  <rect x="246" y="110" width="12" height="12" 
           fill="#ffa726" class="cell"/>
  <rect x="260" y="110" width="12" height="12" 
           fill="#ffeb3b" class="cell"/>
  <rect x="274" y="110" width="12" height="12" 
           fill="#f5f5f5" class="cell"/>
  <rect x="288" y="110" width="12" height="12" 
           fill="#f5f5f5" class="cell"/>
  <rect x="302" y="110" width="12" height="12" 
           fill="#f5f5f5" class="cell"/>
  <rect x="316" y="110" width="12" height="12" 
           fill="#f5f5f5" class="cell"/>
  <rect x="330" y="110" width="12" height="12" 
           fill="#66bb6a" class="cell"/>
  <rect x="344" y="110" width="12" height="12" 
           fill="#f5f5f5" class="cell"/>
  <rect x="358" y="110" width="12" height="12" 
           fill="#f5f5f5" class="cell"/>
  <rect x="372" y="110" width="12" height="12" 
           fill="#f5f5f5" class="cell"/>
  <rect x="50" y="124" width="12" height="12" 
           fill="#f5f5f5" class="cell"/>
  <rect x="64" y="124" width="12" height="12" 
           fill="#f5f5f5" class="cell"/>
  <rect x="78" y="124" width="12" height="12" 
           fill="#f5f5f5" class="cell"/>
  <rect x="92" y="124" width="12" height="12" 
           fill="#f5f5f5" class="cell"/>
  <rect x="106" y="124" width="12" height="12" 
           fill="#f5f5f5" class="cell"/>
  <rect x="120" y="124" width="12" height="12" 
           fill="#f5f5f5" class="cell"/>
  <rect x="134" y="124" width="12" height="12" 
           fill="#f5f5f5" class="cell"/>
  <rect x="148" y="124" width="12" height="12" 
           fill="#f5f5f5" class="cell"/>
  <rect x="162" y="124" width="12" height="12" 
           fill="#f5f5f5" class="cell"/>
  <rect x="176" y="124" width="12" height="12" 
           fill="#66bb6a" class="cell"/>
  <rect x="190" y="124" width="12" height="12" 
           fill="#ffeb3b" class="cell"/>
  <rect x="204" y="124" width="12" height="12" 
           fill="#f5f5f5" class="cell"/>
  <rect x="218" y="124" width="12" height="12" 
           fill="#f5f5f5" class="cell"/>
  <rect x="232" y="124" width="12" height="12" 
           fill="#f5f5f5" class="cell"/>
  <rect x="246" y="124" width="12" height="12" 
           fill="#ffeb3b" class="cell"/>
  <rect x="260" y="124" width="12" height="12" 
           fill="#66bb6a" class="cell"/>
  <rect x="274" y="124" width="12" height="12" 
           fill="#f5f5f5" class="cell"/>
  <rect x="288" y="124" width="12" height="12" 
           fill="#f5f5f5" class="cell"/>
  <rect x="302" y="124" width="12" height="12" 
           fill="#f5f5f5" class="cell"/>
  <rect x="316" y="124" width="12" height="12" 
           fill="#e0e0e0" class="cell"/>
  <rect x="330" y="124" width="12" height="12" 
           fill="#66bb6a" class="cell"/>
  <rect x="344" y="124" width="12" height="12" 
           fill="#f5f5f5" class="cell"/>
  <rect x="358" y="124" width="12" height="12" 
           fill="#f5f5f5" class="cell"/>
  <rect x="372" y="124" width="12" height="12" 
           fill="#f5f5f5" class="cell"/>

  <!-- 凡例 -->
  <g transform="translate(284, 96)">
    <text x="0" y="0" font-family="Arial, sans-serif" font-size="10" fill="#333">Activity Level</text>
    <rect x="0" y="5" width="12" height="12" fill="#f5f5f5" stroke="#fff" stroke-width="0.5"/>
    <text x="15" y="15" font-family="Arial, sans-serif" font-size="8" fill="#666">0</text>
    <rect x="25" y="5" width="12" height="12" fill="#e0e0e0" stroke="#fff" stroke-width="0.5"/>
    <text x="40" y="15" font-family="Arial, sans-serif" font-size="8" fill="#666">1</text>
    <rect x="50" y="5" width="12" height="12" fill="#66bb6a" stroke="#fff" stroke-width="0.5"/>
    <text x="65" y="15" font-family="Arial, sans-serif" font-size="8" fill="#666">2</text>
    <rect x="75" y="5" width="12" height="12" fill="#ffeb3b" stroke="#fff" stroke-width="0.5"/>
    <text x="90" y="15" font-family="Arial, sans-serif" font-size="8" fill="#666">3</text>
    <rect x="0" y="20" width="12" height="12" fill="#ffa726" stroke="#fff" stroke-width="0.5"/>
    <text x="15" y="30" font-family="Arial, sans-serif" font-size="8" fill="#666">4</text>
    <rect x="25" y="20" width="12" height="12" fill="#ff6b6b" stroke="#fff" stroke-width="0.5"/>
    <text x="40" y="30" font-family="Arial, sans-serif" font-size="8" fill="#666">5</text>
  </g>
</svg>