<svg width="374" height="136" xmlns="http://www.w3.org/2000/svg">
  <style>
    .day-label { font-family: Arial, sans-serif; font-size: 10px; fill: #666; text-anchor: end; }
    .hour-label { font-family: Arial, sans-serif; font-size: 8px; fill: #666; text-anchor: middle; }
    .cell { stroke: #fff; stroke-width: 0.5; }
  </style>
  
  <!-- 背景 -->
  <rect width="374" height="136" fill="#f8f9fa"/>
  
  <!-- 曜日ラベル -->
  <text x="25" y="46" class="day-label">Mon</text>
  <text x="25" y="60" class="day-label">Tue</text>
  <text x="25" y="74" class="day-label">Wed</text>
  <text x="25" y="88" class="day-label">Thu</text>
  <text x="25" y="102" class="day-label">Fri</text>
  <text x="25" y="116" class="day-label">Sat</text>
  <text x="25" y="130" class="day-label">Sun</text>
  <text x="56" y="15" class="hour-label">0</text>
  <text x="70" y="15" class="hour-label">1</text>
  <text x="84" y="15" class="hour-label">2</text>
  <text x="98" y="15" class="hour-label">3</text>
  <text x="112" y="15" class="hour-label">4</text>
  <text x="126" y="15" class="hour-label">5</text>
  <text x="140" y="15" class="hour-label">6</text>
  <text x="154" y="15" class="hour-label">7</text>
  <text x="168" y="15" class="hour-label">8</text>
  <text x="182" y="15" class="hour-label">9</text>
  <text x="196" y="15" class="hour-label">10</text>
  <text x="210" y="15" class="hour-label">11</text>
  <text x="224" y="15" class="hour-label">12</text>
  <text x="238" y="15" class="hour-label">13</text>
  <text x="252" y="15" class="hour-label">14</text>
  <text x="266" y="15" class="hour-label">15</text>
  <text x="280" y="15" class="hour-label">16</text>
  <text x="294" y="15" class="hour-label">17</text>
  <text x="308" y="15" class="hour-label">18</text>
  <text x="322" y="15" class="hour-label">19</text>
  <text x="336" y="15" class="hour-label">20</text>
  <text x="350" y="15" class="hour-label">21</text>
  <text x="364" y="15" class="hour-label">22</text>
  <text x="378" y="15" class="hour-label">23</text>
  <rect x="20" y="20" width="12" height="12" 
           fill="#f5f5f5" class="cell"/>
  <rect x="34" y="20" width="12" height="12" 
           fill="#f5f5f5" class="cell"/>
  <rect x="48" y="20" width="12" height="12" 
           fill="#f5f5f5" class="cell"/>
  <rect x="62" y="20" width="12" height="12" 
           fill="#f5f5f5" class="cell"/>
  <rect x="76" y="20" width="12" height="12" 
           fill="#f5f5f5" class="cell"/>
  <rect x="90" y="20" width="12" height="12" 
           fill="#f5f5f5" class="cell"/>
  <rect x="104" y="20" width="12" height="12" 
           fill="#f5f5f5" class="cell"/>
  <rect x="118" y="20" width="12" height="12" 
           fill="#f5f5f5" class="cell"/>
  <rect x="132" y="20" width="12" height="12" 
           fill="#f5f5f5" class="cell"/>
  <rect x="146" y="20" width="12" height="12" 
           fill="#ffeb3b" class="cell"/>
  <rect x="160" y="20" width="12" height="12" 
           fill="#ffa726" class="cell"/>
  <rect x="174" y="20" width="12" height="12" 
           fill="#ffa726" class="cell"/>
  <rect x="188" y="20" width="12" height="12" 
           fill="#f5f5f5" class="cell"/>
  <rect x="202" y="20" width="12" height="12" 
           fill="#f5f5f5" class="cell"/>
  <rect x="216" y="20" width="12" height="12" 
           fill="#66bb6a" class="cell"/>
  <rect x="230" y="20" width="12" height="12" 
           fill="#ffeb3b" class="cell"/>
  <rect x="244" y="20" width="12" height="12" 
           fill="#f5f5f5" class="cell"/>
  <rect x="258" y="20" width="12" height="12" 
           fill="#f5f5f5" class="cell"/>
  <rect x="272" y="20" width="12" height="12" 
           fill="#f5f5f5" class="cell"/>
  <rect x="286" y="20" width="12" height="12" 
           fill="#f5f5f5" class="cell"/>
  <rect x="300" y="20" width="12" height="12" 
           fill="#ff6b6b" class="cell"/>
  <rect x="314" y="20" width="12" height="12" 
           fill="#ffa726" class="cell"/>
  <rect x="328" y="20" width="12" height="12" 
           fill="#f5f5f5" class="cell"/>
  <rect x="342" y="20" width="12" height="12" 
           fill="#f5f5f5" class="cell"/>
  <rect x="20" y="34" width="12" height="12" 
           fill="#f5f5f5" class="cell"/>
  <rect x="34" y="34" width="12" height="12" 
           fill="#f5f5f5" class="cell"/>
  <rect x="48" y="34" width="12" height="12" 
           fill="#f5f5f5" class="cell"/>
  <rect x="62" y="34" width="12" height="12" 
           fill="#f5f5f5" class="cell"/>
  <rect x="76" y="34" width="12" height="12" 
           fill="#f5f5f5" class="cell"/>
  <rect x="90" y="34" width="12" height="12" 
           fill="#f5f5f5" class="cell"/>
  <rect x="104" y="34" width="12" height="12" 
           fill="#f5f5f5" class="cell"/>
  <rect x="118" y="34" width="12" height="12" 
           fill="#f5f5f5" class="cell"/>
  <rect x="132" y="34" width="12" height="12" 
           fill="#ffa726" class="cell"/>
  <rect x="146" y="34" width="12" height="12" 
           fill="#ff6b6b" class="cell"/>
  <rect x="160" y="34" width="12" height="12" 
           fill="#ffa726" class="cell"/>
  <rect x="174" y="34" width="12" height="12" 
           fill="#f5f5f5" class="cell"/>
  <rect x="188" y="34" width="12" height="12" 
           fill="#f5f5f5" class="cell"/>
  <rect x="202" y="34" width="12" height="12" 
           fill="#f5f5f5" class="cell"/>
  <rect x="216" y="34" width="12" height="12" 
           fill="#f5f5f5" class="cell"/>
  <rect x="230" y="34" width="12" height="12" 
           fill="#ffeb3b" class="cell"/>
  <rect x="244" y="34" width="12" height="12" 
           fill="#66bb6a" class="cell"/>
  <rect x="258" y="34" width="12" height="12" 
           fill="#f5f5f5" class="cell"/>
  <rect x="272" y="34" width="12" height="12" 
           fill="#f5f5f5" class="cell"/>
  <rect x="286" y="34" width="12" height="12" 
           fill="#ffa726" class="cell"/>
  <rect x="300" y="34" width="12" height="12" 
           fill="#ffeb3b" class="cell"/>
  <rect x="314" y="34" width="12" height="12" 
           fill="#f5f5f5" class="cell"/>
  <rect x="328" y="34" width="12" height="12" 
           fill="#f5f5f5" class="cell"/>
  <rect x="342" y="34" width="12" height="12" 
           fill="#f5f5f5" class="cell"/>
  <rect x="20" y="48" width="12" height="12" 
           fill="#f5f5f5" class="cell"/>
  <rect x="34" y="48" width="12" height="12" 
           fill="#f5f5f5" class="cell"/>
  <rect x="48" y="48" width="12" height="12" 
           fill="#f5f5f5" class="cell"/>
  <rect x="62" y="48" width="12" height="12" 
           fill="#f5f5f5" class="cell"/>
  <rect x="76" y="48" width="12" height="12" 
           fill="#f5f5f5" class="cell"/>
  <rect x="90" y="48" width="12" height="12" 
           fill="#f5f5f5" class="cell"/>
  <rect x="104" y="48" width="12" height="12" 
           fill="#f5f5f5" class="cell"/>
  <rect x="118" y="48" width="12" height="12" 
           fill="#f5f5f5" class="cell"/>
  <rect x="132" y="48" width="12" height="12" 
           fill="#f5f5f5" class="cell"/>
  <rect x="146" y="48" width="12" height="12" 
           fill="#ffeb3b" class="cell"/>
  <rect x="160" y="48" width="12" height="12" 
           fill="#ffa726" class="cell"/>
  <rect x="174" y="48" width="12" height="12" 
           fill="#ffeb3b" class="cell"/>
  <rect x="188" y="48" width="12" height="12" 
           fill="#f5f5f5" class="cell"/>
  <rect x="202" y="48" width="12" height="12" 
           fill="#f5f5f5" class="cell"/>
  <rect x="216" y="48" width="12" height="12" 
           fill="#ffa726" class="cell"/>
  <rect x="230" y="48" width="12" height="12" 
           fill="#ff6b6b" class="cell"/>
  <rect x="244" y="48" width="12" height="12" 
           fill="#ffeb3b" class="cell"/>
  <rect x="258" y="48" width="12" height="12" 
           fill="#f5f5f5" class="cell"/>
  <rect x="272" y="48" width="12" height="12" 
           fill="#f5f5f5" class="cell"/>
  <rect x="286" y="48" width="12" height="12" 
           fill="#f5f5f5" class="cell"/>
  <rect x="300" y="48" width="12" height="12" 
           fill="#f5f5f5" class="cell"/>
  <rect x="314" y="48" width="12" height="12" 
           fill="#66bb6a" class="cell"/>
  <rect x="328" y="48" width="12" height="12" 
           fill="#f5f5f5" class="cell"/>
  <rect x="342" y="48" width="12" height="12" 
           fill="#f5f5f5" class="cell"/>
  <rect x="20" y="62" width="12" height="12" 
           fill="#f5f5f5" class="cell"/>
  <rect x="34" y="62" width="12" height="12" 
           fill="#f5f5f5" class="cell"/>
  <rect x="48" y="62" width="12" height="12" 
           fill="#f5f5f5" class="cell"/>
  <rect x="62" y="62" width="12" height="12" 
           fill="#f5f5f5" class="cell"/>
  <rect x="76" y="62" width="12" height="12" 
           fill="#f5f5f5" class="cell"/>
  <rect x="90" y="62" width="12" height="12" 
           fill="#f5f5f5" class="cell"/>
  <rect x="104" y="62" width="12" height="12" 
           fill="#f5f5f5" class="cell"/>
  <rect x="118" y="62" width="12" height="12" 
           fill="#f5f5f5" class="cell"/>
  <rect x="132" y="62" width="12" height="12" 
           fill="#ffeb3b" class="cell"/>
  <rect x="146" y="62" width="12" height="12" 
           fill="#ffa726" class="cell"/>
  <rect x="160" y="62" width="12" height="12" 
           fill="#ff6b6b" class="cell"/>
  <rect x="174" y="62" width="12" height="12" 
           fill="#ffa726" class="cell"/>
  <rect x="188" y="62" width="12" height="12" 
           fill="#f5f5f5" class="cell"/>
  <rect x="202" y="62" width="12" height="12" 
           fill="#f5f5f5" class="cell"/>
  <rect x="216" y="62" width="12" height="12" 
           fill="#f5f5f5" class="cell"/>
  <rect x="230" y="62" width="12" height="12" 
           fill="#ffeb3b" class="cell"/>
  <rect x="244" y="62" width="12" height="12" 
           fill="#f5f5f5" class="cell"/>
  <rect x="258" y="62" width="12" height="12" 
           fill="#f5f5f5" class="cell"/>
  <rect x="272" y="62" width="12" height="12" 
           fill="#f5f5f5" class="cell"/>
  <rect x="286" y="62" width="12" height="12" 
           fill="#ffa726" class="cell"/>
  <rect x="300" y="62" width="12" height="12" 
           fill="#ff6b6b" class="cell"/>
  <rect x="314" y="62" width="12" height="12" 
           fill="#f5f5f5" class="cell"/>
  <rect x="328" y="62" width="12" height="12" 
           fill="#f5f5f5" class="cell"/>
  <rect x="342" y="62" width="12" height="12" 
           fill="#f5f5f5" class="cell"/>
  <rect x="20" y="76" width="12" height="12" 
           fill="#f5f5f5" class="cell"/>
  <rect x="34" y="76" width="12" height="12" 
           fill="#f5f5f5" class="cell"/>
  <rect x="48" y="76" width="12" height="12" 
           fill="#f5f5f5" class="cell"/>
  <rect x="62" y="76" width="12" height="12" 
           fill="#f5f5f5" class="cell"/>
  <rect x="76" y="76" width="12" height="12" 
           fill="#f5f5f5" class="cell"/>
  <rect x="90" y="76" width="12" height="12" 
           fill="#f5f5f5" class="cell"/>
  <rect x="104" y="76" width="12" height="12" 
           fill="#f5f5f5" class="cell"/>
  <rect x="118" y="76" width="12" height="12" 
           fill="#f5f5f5" class="cell"/>
  <rect x="132" y="76" width="12" height="12" 
           fill="#f5f5f5" class="cell"/>
  <rect x="146" y="76" width="12" height="12" 
           fill="#ffa726" class="cell"/>
  <rect x="160" y="76" width="12" height="12" 
           fill="#ffeb3b" class="cell"/>
  <rect x="174" y="76" width="12" height="12" 
           fill="#ffa726" class="cell"/>
  <rect x="188" y="76" width="12" height="12" 
           fill="#f5f5f5" class="cell"/>
  <rect x="202" y="76" width="12" height="12" 
           fill="#f5f5f5" class="cell"/>
  <rect x="216" y="76" width="12" height="12" 
           fill="#ff6b6b" class="cell"/>
  <rect x="230" y="76" width="12" height="12" 
           fill="#ffa726" class="cell"/>
  <rect x="244" y="76" width="12" height="12" 
           fill="#ffeb3b" class="cell"/>
  <rect x="258" y="76" width="12" height="12" 
           fill="#f5f5f5" class="cell"/>
  <rect x="272" y="76" width="12" height="12" 
           fill="#66bb6a" class="cell"/>
  <rect x="286" y="76" width="12" height="12" 
           fill="#f5f5f5" class="cell"/>
  <rect x="300" y="76" width="12" height="12" 
           fill="#f5f5f5" class="cell"/>
  <rect x="314" y="76" width="12" height="12" 
           fill="#f5f5f5" class="cell"/>
  <rect x="328" y="76" width="12" height="12" 
           fill="#f5f5f5" class="cell"/>
  <rect x="342" y="76" width="12" height="12" 
           fill="#f5f5f5" class="cell"/>
  <rect x="20" y="90" width="12" height="12" 
           fill="#f5f5f5" class="cell"/>
  <rect x="34" y="90" width="12" height="12" 
           fill="#f5f5f5" class="cell"/>
  <rect x="48" y="90" width="12" height="12" 
           fill="#f5f5f5" class="cell"/>
  <rect x="62" y="90" width="12" height="12" 
           fill="#f5f5f5" class="cell"/>
  <rect x="76" y="90" width="12" height="12" 
           fill="#f5f5f5" class="cell"/>
  <rect x="90" y="90" width="12" height="12" 
           fill="#f5f5f5" class="cell"/>
  <rect x="104" y="90" width="12" height="12" 
           fill="#f5f5f5" class="cell"/>
  <rect x="118" y="90" width="12" height="12" 
           fill="#f5f5f5" class="cell"/>
  <rect x="132" y="90" width="12" height="12" 
           fill="#f5f5f5" class="cell"/>
  <rect x="146" y="90" width="12" height="12" 
           fill="#f5f5f5" class="cell"/>
  <rect x="160" y="90" width="12" height="12" 
           fill="#66bb6a" class="cell"/>
  <rect x="174" y="90" width="12" height="12" 
           fill="#ffeb3b" class="cell"/>
  <rect x="188" y="90" width="12" height="12" 
           fill="#f5f5f5" class="cell"/>
  <rect x="202" y="90" width="12" height="12" 
           fill="#f5f5f5" class="cell"/>
  <rect x="216" y="90" width="12" height="12" 
           fill="#ffa726" class="cell"/>
  <rect x="230" y="90" width="12" height="12" 
           fill="#ffeb3b" class="cell"/>
  <rect x="244" y="90" width="12" height="12" 
           fill="#f5f5f5" class="cell"/>
  <rect x="258" y="90" width="12" height="12" 
           fill="#f5f5f5" class="cell"/>
  <rect x="272" y="90" width="12" height="12" 
           fill="#f5f5f5" class="cell"/>
  <rect x="286" y="90" width="12" height="12" 
           fill="#f5f5f5" class="cell"/>
  <rect x="300" y="90" width="12" height="12" 
           fill="#66bb6a" class="cell"/>
  <rect x="314" y="90" width="12" height="12" 
           fill="#f5f5f5" class="cell"/>
  <rect x="328" y="90" width="12" height="12" 
           fill="#f5f5f5" class="cell"/>
  <rect x="342" y="90" width="12" height="12" 
           fill="#f5f5f5" class="cell"/>
  <rect x="20" y="104" width="12" height="12" 
           fill="#f5f5f5" class="cell"/>
  <rect x="34" y="104" width="12" height="12" 
           fill="#f5f5f5" class="cell"/>
  <rect x="48" y="104" width="12" height="12" 
           fill="#f5f5f5" class="cell"/>
  <rect x="62" y="104" width="12" height="12" 
           fill="#f5f5f5" class="cell"/>
  <rect x="76" y="104" width="12" height="12" 
           fill="#f5f5f5" class="cell"/>
  <rect x="90" y="104" width="12" height="12" 
           fill="#f5f5f5" class="cell"/>
  <rect x="104" y="104" width="12" height="12" 
           fill="#f5f5f5" class="cell"/>
  <rect x="118" y="104" width="12" height="12" 
           fill="#f5f5f5" class="cell"/>
  <rect x="132" y="104" width="12" height="12" 
           fill="#f5f5f5" class="cell"/>
  <rect x="146" y="104" width="12" height="12" 
           fill="#66bb6a" class="cell"/>
  <rect x="160" y="104" width="12" height="12" 
           fill="#ffeb3b" class="cell"/>
  <rect x="174" y="104" width="12" height="12" 
           fill="#f5f5f5" class="cell"/>
  <rect x="188" y="104" width="12" height="12" 
           fill="#f5f5f5" class="cell"/>
  <rect x="202" y="104" width="12" height="12" 
           fill="#f5f5f5" class="cell"/>
  <rect x="216" y="104" width="12" height="12" 
           fill="#ffeb3b" class="cell"/>
  <rect x="230" y="104" width="12" height="12" 
           fill="#66bb6a" class="cell"/>
  <rect x="244" y="104" width="12" height="12" 
           fill="#f5f5f5" class="cell"/>
  <rect x="258" y="104" width="12" height="12" 
           fill="#f5f5f5" class="cell"/>
  <rect x="272" y="104" width="12" height="12" 
           fill="#f5f5f5" class="cell"/>
  <rect x="286" y="104" width="12" height="12" 
           fill="#e0e0e0" class="cell"/>
  <rect x="300" y="104" width="12" height="12" 
           fill="#66bb6a" class="cell"/>
  <rect x="314" y="104" width="12" height="12" 
           fill="#f5f5f5" class="cell"/>
  <rect x="328" y="104" width="12" height="12" 
           fill="#f5f5f5" class="cell"/>
  <rect x="342" y="104" width="12" height="12" 
           fill="#f5f5f5" class="cell"/>
</svg>