<svg width="374" height="136" xmlns="http://www.w3.org/2000/svg">
  <style>
    .day-label { font-family: Arial, sans-serif; font-size: 10px; fill: #666; text-anchor: end; }
    .hour-label { font-family: Arial, sans-serif; font-size: 8px; fill: #666; text-anchor: middle; }
    .cell { stroke: #fff; stroke-width: 0.5; }
  </style>
  
  <!-- 背景 -->
  <rect width="374" height="136" fill="#f8f9fa"/>
  <rect x="20" y="20" width="12" height="12" 
           fill="#f5f5f5" class="cell"/>
  <rect x="34" y="20" width="12" height="12" 
           fill="#f5f5f5" class="cell"/>
  <rect x="48" y="20" width="12" height="12" 
           fill="#f5f5f5" class="cell"/>
  <rect x="62" y="20" width="12" height="12" 
           fill="#f5f5f5" class="cell"/>
  <rect x="76" y="20" width="12" height="12" 
           fill="#f5f5f5" class="cell"/>
  <rect x="90" y="20" width="12" height="12" 
           fill="#f5f5f5" class="cell"/>
  <rect x="104" y="20" width="12" height="12" 
           fill="#f5f5f5" class="cell"/>
  <rect x="118" y="20" width="12" height="12" 
           fill="#f5f5f5" class="cell"/>
  <rect x="132" y="20" width="12" height="12" 
           fill="#f5f5f5" class="cell"/>
  <rect x="146" y="20" width="12" height="12" 
           fill="#ffeb3b" class="cell"/>
  <rect x="160" y="20" width="12" height="12" 
           fill="#ffa726" class="cell"/>
  <rect x="174" y="20" width="12" height="12" 
           fill="#ffa726" class="cell"/>
  <rect x="188" y="20" width="12" height="12" 
           fill="#f5f5f5" class="cell"/>
  <rect x="202" y="20" width="12" height="12" 
           fill="#f5f5f5" class="cell"/>
  <rect x="216" y="20" width="12" height="12" 
           fill="#66bb6a" class="cell"/>
  <rect x="230" y="20" width="12" height="12" 
           fill="#ffeb3b" class="cell"/>
  <rect x="244" y="20" width="12" height="12" 
           fill="#f5f5f5" class="cell"/>
  <rect x="258" y="20" width="12" height="12" 
           fill="#f5f5f5" class="cell"/>
  <rect x="272" y="20" width="12" height="12" 
           fill="#f5f5f5" class="cell"/>
  <rect x="286" y="20" width="12" height="12" 
           fill="#f5f5f5" class="cell"/>
  <rect x="300" y="20" width="12" height="12" 
           fill="#ff6b6b" class="cell"/>
  <rect x="314" y="20" width="12" height="12" 
           fill="#ffa726" class="cell"/>
  <rect x="328" y="20" width="12" height="12" 
           fill="#f5f5f5" class="cell"/>
  <rect x="342" y="20" width="12" height="12" 
           fill="#f5f5f5" class="cell"/>
  <rect x="20" y="34" width="12" height="12" 
           fill="#f5f5f5" class="cell"/>
  <rect x="34" y="34" width="12" height="12" 
           fill="#f5f5f5" class="cell"/>
  <rect x="48" y="34" width="12" height="12" 
           fill="#f5f5f5" class="cell"/>
  <rect x="62" y="34" width="12" height="12" 
           fill="#f5f5f5" class="cell"/>
  <rect x="76" y="34" width="12" height="12" 
           fill="#f5f5f5" class="cell"/>
  <rect x="90" y="34" width="12" height="12" 
           fill="#f5f5f5" class="cell"/>
  <rect x="104" y="34" width="12" height="12" 
           fill="#f5f5f5" class="cell"/>
  <rect x="118" y="34" width="12" height="12" 
           fill="#f5f5f5" class="cell"/>
  <rect x="132" y="34" width="12" height="12" 
           fill="#ffa726" class="cell"/>
  <rect x="146" y="34" width="12" height="12" 
           fill="#ff6b6b" class="cell"/>
  <rect x="160" y="34" width="12" height="12" 
           fill="#ffa726" class="cell"/>
  <rect x="174" y="34" width="12" height="12" 
           fill="#f5f5f5" class="cell"/>
  <rect x="188" y="34" width="12" height="12" 
           fill="#f5f5f5" class="cell"/>
  <rect x="202" y="34" width="12" height="12" 
           fill="#f5f5f5" class="cell"/>
  <rect x="216" y="34" width="12" height="12" 
           fill="#f5f5f5" class="cell"/>
  <rect x="230" y="34" width="12" height="12" 
           fill="#ffeb3b" class="cell"/>
  <rect x="244" y="34" width="12" height="12" 
           fill="#66bb6a" class="cell"/>
  <rect x="258" y="34" width="12" height="12" 
           fill="#f5f5f5" class="cell"/>
  <rect x="272" y="34" width="12" height="12" 
           fill="#f5f5f5" class="cell"/>
  <rect x="286" y="34" width="12" height="12" 
           fill="#ffa726" class="cell"/>
  <rect x="300" y="34" width="12" height="12" 
           fill="#ffeb3b" class="cell"/>
  <rect x="314" y="34" width="12" height="12" 
           fill="#f5f5f5" class="cell"/>
  <rect x="328" y="34" width="12" height="12" 
           fill="#f5f5f5" class="cell"/>
  <rect x="342" y="34" width="12" height="12" 
           fill="#f5f5f5" class="cell"/>
  <rect x="20" y="48" width="12" height="12" 
           fill="#f5f5f5" class="cell"/>
  <rect x="34" y="48" width="12" height="12" 
           fill="#f5f5f5" class="cell"/>
  <rect x="48" y="48" width="12" height="12" 
           fill="#f5f5f5" class="cell"/>
  <rect x="62" y="48" width="12" height="12" 
           fill="#f5f5f5" class="cell"/>
  <rect x="76" y="48" width="12" height="12" 
           fill="#f5f5f5" class="cell"/>
  <rect x="90" y="48" width="12" height="12" 
           fill="#f5f5f5" class="cell"/>
  <rect x="104" y="48" width="12" height="12" 
           fill="#f5f5f5" class="cell"/>
  <rect x="118" y="48" width="12" height="12" 
           fill="#f5f5f5" class="cell"/>
  <rect x="132" y="48" width="12" height="12" 
           fill="#f5f5f5" class="cell"/>
  <rect x="146" y="48" width="12" height="12" 
           fill="#ffeb3b" class="cell"/>
  <rect x="160" y="48" width="12" height="12" 
           fill="#ffa726" class="cell"/>
  <rect x="174" y="48" width="12" height="12" 
           fill="#ffeb3b" class="cell"/>
  <rect x="188" y="48" width="12" height="12" 
           fill="#f5f5f5" class="cell"/>
  <rect x="202" y="48" width="12" height="12" 
           fill="#f5f5f5" class="cell"/>
  <rect x="216" y="48" width="12" height="12" 
           fill="#ffa726" class="cell"/>
  <rect x="230" y="48" width="12" height="12" 
           fill="#ff6b6b" class="cell"/>
  <rect x="244" y="48" width="12" height="12" 
           fill="#ffeb3b" class="cell"/>
  <rect x="258" y="48" width="12" height="12" 
           fill="#f5f5f5" class="cell"/>
  <rect x="272" y="48" width="12" height="12" 
           fill="#f5f5f5" class="cell"/>
  <rect x="286" y="48" width="12" height="12" 
           fill="#f5f5f5" class="cell"/>
  <rect x="300" y="48" width="12" height="12" 
           fill="#f5f5f5" class="cell"/>
  <rect x="314" y="48" width="12" height="12" 
           fill="#66bb6a" class="cell"/>
  <rect x="328" y="48" width="12" height="12" 
           fill="#f5f5f5" class="cell"/>
  <rect x="342" y="48" width="12" height="12" 
           fill="#f5f5f5" class="cell"/>
  <rect x="20" y="62" width="12" height="12" 
           fill="#f5f5f5" class="cell"/>
  <rect x="34" y="62" width="12" height="12" 
           fill="#f5f5f5" class="cell"/>
  <rect x="48" y="62" width="12" height="12" 
           fill="#f5f5f5" class="cell"/>
  <rect x="62" y="62" width="12" height="12" 
           fill="#f5f5f5" class="cell"/>
  <rect x="76" y="62" width="12" height="12" 
           fill="#f5f5f5" class="cell"/>
  <rect x="90" y="62" width="12" height="12" 
           fill="#f5f5f5" class="cell"/>
  <rect x="104" y="62" width="12" height="12" 
           fill="#f5f5f5" class="cell"/>
  <rect x="118" y="62" width="12" height="12" 
           fill="#f5f5f5" class="cell"/>
  <rect x="132" y="62" width="12" height="12" 
           fill="#ffeb3b" class="cell"/>
  <rect x="146" y="62" width="12" height="12" 
           fill="#ffa726" class="cell"/>
  <rect x="160" y="62" width="12" height="12" 
           fill="#ff6b6b" class="cell"/>
  <rect x="174" y="62" width="12" height="12" 
           fill="#ffa726" class="cell"/>
  <rect x="188" y="62" width="12" height="12" 
           fill="#f5f5f5" class="cell"/>
  <rect x="202" y="62" width="12" height="12" 
           fill="#f5f5f5" class="cell"/>
  <rect x="216" y="62" width="12" height="12" 
           fill="#f5f5f5" class="cell"/>
  <rect x="230" y="62" width="12" height="12" 
           fill="#ffeb3b" class="cell"/>
  <rect x="244" y="62" width="12" height="12" 
           fill="#f5f5f5" class="cell"/>
  <rect x="258" y="62" width="12" height="12" 
           fill="#f5f5f5" class="cell"/>
  <rect x="272" y="62" width="12" height="12" 
           fill="#f5f5f5" class="cell"/>
  <rect x="286" y="62" width="12" height="12" 
           fill="#ffa726" class="cell"/>
  <rect x="300" y="62" width="12" height="12" 
           fill="#ff6b6b" class="cell"/>
  <rect x="314" y="62" width="12" height="12" 
           fill="#f5f5f5" class="cell"/>
  <rect x="328" y="62" width="12" height="12" 
           fill="#f5f5f5" class="cell"/>
  <rect x="342" y="62" width="12" height="12" 
           fill="#f5f5f5" class="cell"/>
  <rect x="20" y="76" width="12" height="12" 
           fill="#f5f5f5" class="cell"/>
  <rect x="34" y="76" width="12" height="12" 
           fill="#f5f5f5" class="cell"/>
  <rect x="48" y="76" width="12" height="12" 
           fill="#f5f5f5" class="cell"/>
  <rect x="62" y="76" width="12" height="12" 
           fill="#f5f5f5" class="cell"/>
  <rect x="76" y="76" width="12" height="12" 
           fill="#f5f5f5" class="cell"/>
  <rect x="90" y="76" width="12" height="12" 
           fill="#f5f5f5" class="cell"/>
  <rect x="104" y="76" width="12" height="12" 
           fill="#f5f5f5" class="cell"/>
  <rect x="118" y="76" width="12" height="12" 
           fill="#f5f5f5" class="cell"/>
  <rect x="132" y="76" width="12" height="12" 
           fill="#f5f5f5" class="cell"/>
  <rect x="146" y="76" width="12" height="12" 
           fill="#ffa726" class="cell"/>
  <rect x="160" y="76" width="12" height="12" 
           fill="#ffeb3b" class="cell"/>
  <rect x="174" y="76" width="12" height="12" 
           fill="#ffa726" class="cell"/>
  <rect x="188" y="76" width="12" height="12" 
           fill="#f5f5f5" class="cell"/>
  <rect x="202" y="76" width="12" height="12" 
           fill="#f5f5f5" class="cell"/>
  <rect x="216" y="76" width="12" height="12" 
           fill="#ff6b6b" class="cell"/>
  <rect x="230" y="76" width="12" height="12" 
           fill="#ffa726" class="cell"/>
  <rect x="244" y="76" width="12" height="12" 
           fill="#ffeb3b" class="cell"/>
  <rect x="258" y="76" width="12" height="12" 
           fill="#f5f5f5" class="cell"/>
  <rect x="272" y="76" width="12" height="12" 
           fill="#66bb6a" class="cell"/>
  <rect x="286" y="76" width="12" height="12" 
           fill="#f5f5f5" class="cell"/>
  <rect x="300" y="76" width="12" height="12" 
           fill="#f5f5f5" class="cell"/>
  <rect x="314" y="76" width="12" height="12" 
           fill="#f5f5f5" class="cell"/>
  <rect x="328" y="76" width="12" height="12" 
           fill="#f5f5f5" class="cell"/>
  <rect x="342" y="76" width="12" height="12" 
           fill="#f5f5f5" class="cell"/>
  <rect x="20" y="90" width="12" height="12" 
           fill="#f5f5f5" class="cell"/>
  <rect x="34" y="90" width="12" height="12" 
           fill="#f5f5f5" class="cell"/>
  <rect x="48" y="90" width="12" height="12" 
           fill="#f5f5f5" class="cell"/>
  <rect x="62" y="90" width="12" height="12" 
           fill="#f5f5f5" class="cell"/>
  <rect x="76" y="90" width="12" height="12" 
           fill="#f5f5f5" class="cell"/>
  <rect x="90" y="90" width="12" height="12" 
           fill="#f5f5f5" class="cell"/>
  <rect x="104" y="90" width="12" height="12" 
           fill="#f5f5f5" class="cell"/>
  <rect x="118" y="90" width="12" height="12" 
           fill="#f5f5f5" class="cell"/>
  <rect x="132" y="90" width="12" height="12" 
           fill="#f5f5f5" class="cell"/>
  <rect x="146" y="90" width="12" height="12" 
           fill="#f5f5f5" class="cell"/>
  <rect x="160" y="90" width="12" height="12" 
           fill="#66bb6a" class="cell"/>
  <rect x="174" y="90" width="12" height="12" 
           fill="#ffeb3b" class="cell"/>
  <rect x="188" y="90" width="12" height="12" 
           fill="#f5f5f5" class="cell"/>
  <rect x="202" y="90" width="12" height="12" 
           fill="#f5f5f5" class="cell"/>
  <rect x="216" y="90" width="12" height="12" 
           fill="#ffa726" class="cell"/>
  <rect x="230" y="90" width="12" height="12" 
           fill="#ffeb3b" class="cell"/>
  <rect x="244" y="90" width="12" height="12" 
           fill="#f5f5f5" class="cell"/>
  <rect x="258" y="90" width="12" height="12" 
           fill="#f5f5f5" class="cell"/>
  <rect x="272" y="90" width="12" height="12" 
           fill="#f5f5f5" class="cell"/>
  <rect x="286" y="90" width="12" height="12" 
           fill="#f5f5f5" class="cell"/>
  <rect x="300" y="90" width="12" height="12" 
           fill="#66bb6a" class="cell"/>
  <rect x="314" y="90" width="12" height="12" 
           fill="#f5f5f5" class="cell"/>
  <rect x="328" y="90" width="12" height="12" 
           fill="#f5f5f5" class="cell"/>
  <rect x="342" y="90" width="12" height="12" 
           fill="#f5f5f5" class="cell"/>
  <rect x="20" y="104" width="12" height="12" 
           fill="#f5f5f5" class="cell"/>
  <rect x="34" y="104" width="12" height="12" 
           fill="#f5f5f5" class="cell"/>
  <rect x="48" y="104" width="12" height="12" 
           fill="#f5f5f5" class="cell"/>
  <rect x="62" y="104" width="12" height="12" 
           fill="#f5f5f5" class="cell"/>
  <rect x="76" y="104" width="12" height="12" 
           fill="#f5f5f5" class="cell"/>
  <rect x="90" y="104" width="12" height="12" 
           fill="#f5f5f5" class="cell"/>
  <rect x="104" y="104" width="12" height="12" 
           fill="#f5f5f5" class="cell"/>
  <rect x="118" y="104" width="12" height="12" 
           fill="#f5f5f5" class="cell"/>
  <rect x="132" y="104" width="12" height="12" 
           fill="#f5f5f5" class="cell"/>
  <rect x="146" y="104" width="12" height="12" 
           fill="#66bb6a" class="cell"/>
  <rect x="160" y="104" width="12" height="12" 
           fill="#ffeb3b" class="cell"/>
  <rect x="174" y="104" width="12" height="12" 
           fill="#f5f5f5" class="cell"/>
  <rect x="188" y="104" width="12" height="12" 
           fill="#f5f5f5" class="cell"/>
  <rect x="202" y="104" width="12" height="12" 
           fill="#f5f5f5" class="cell"/>
  <rect x="216" y="104" width="12" height="12" 
           fill="#ffeb3b" class="cell"/>
  <rect x="230" y="104" width="12" height="12" 
           fill="#66bb6a" class="cell"/>
  <rect x="244" y="104" width="12" height="12" 
           fill="#f5f5f5" class="cell"/>
  <rect x="258" y="104" width="12" height="12" 
           fill="#f5f5f5" class="cell"/>
  <rect x="272" y="104" width="12" height="12" 
           fill="#f5f5f5" class="cell"/>
  <rect x="286" y="104" width="12" height="12" 
           fill="#e0e0e0" class="cell"/>
  <rect x="300" y="104" width="12" height="12" 
           fill="#66bb6a" class="cell"/>
  <rect x="314" y="104" width="12" height="12" 
           fill="#f5f5f5" class="cell"/>
  <rect x="328" y="104" width="12" height="12" 
           fill="#f5f5f5" class="cell"/>
  <rect x="342" y="104" width="12" height="12" 
           fill="#f5f5f5" class="cell"/>
</svg>