<svg width="440" height="240" xmlns="http://www.w3.org/2000/svg">
  <style>
    .tech-label { font-family: Arial, sans-serif; font-size: 12px; fill: #ffffff; text-anchor: start; }
    .percentage-label { font-family: Arial, sans-serif; font-size: 12px; fill: #cccccc; text-anchor: end; }
    .bar-bg { fill: #333333; stroke: #555; stroke-width: 0.5; }
    .bar-fill { stroke: #666; stroke-width: 0.5; }
    .card-bg { fill: #2a2a2a; stroke: #444; stroke-width: 1; }
  </style>
  
  <!-- ダークテーマ背景 -->
  <rect width="440" height="240" fill="#1a1a1a"/>
  
  <!-- カード背景 -->
  <rect x="10" y="10" width="420" height="220" rx="8" class="card-bg"/>
  
  <rect x="20" y="20" width="400" height="20" class="bar-bg"/>
  <rect x="20" y="20" width="340" height="20" fill="#F7DF1E" class="bar-fill"/>
  <text x="25" y="34" class="tech-label">JavaScript</text>
  <text x="415" y="34" class="percentage-label">85%</text>
  <rect x="20" y="45" width="400" height="20" class="bar-bg"/>
  <rect x="20" y="45" width="280" height="20" fill="#3776AB" class="bar-fill"/>
  <text x="25" y="59" class="tech-label">Python</text>
  <text x="415" y="59" class="percentage-label">70%</text>
  <rect x="20" y="70" width="400" height="20" class="bar-bg"/>
  <rect x="20" y="70" width="240" height="20" fill="#3178C6" class="bar-fill"/>
  <text x="25" y="84" class="tech-label">TypeScript</text>
  <text x="415" y="84" class="percentage-label">60%</text>
  <rect x="20" y="95" width="400" height="20" class="bar-bg"/>
  <rect x="20" y="95" width="200" height="20" fill="#61DAFB" class="bar-fill"/>
  <text x="25" y="109" class="tech-label">React</text>
  <text x="415" y="109" class="percentage-label">50%</text>
  <rect x="20" y="120" width="400" height="20" class="bar-bg"/>
  <rect x="20" y="120" width="160" height="20" fill="#339933" class="bar-fill"/>
  <text x="25" y="134" class="tech-label">Node.js</text>
  <text x="415" y="134" class="percentage-label">40%</text>
  <rect x="20" y="145" width="400" height="20" class="bar-bg"/>
  <rect x="20" y="145" width="120" height="20" fill="#2496ED" class="bar-fill"/>
  <text x="25" y="159" class="tech-label">Docker</text>
  <text x="415" y="159" class="percentage-label">30%</text>
  <rect x="20" y="170" width="400" height="20" class="bar-bg"/>
  <rect x="20" y="170" width="100" height="20" fill="#F05032" class="bar-fill"/>
  <text x="25" y="184" class="tech-label">Git</text>
  <text x="415" y="184" class="percentage-label">25%</text>
  <rect x="20" y="195" width="400" height="20" class="bar-bg"/>
  <rect x="20" y="195" width="80" height="20" fill="#FF9900" class="bar-fill"/>
  <text x="25" y="209" class="tech-label">AWS</text>
  <text x="415" y="209" class="percentage-label">20%</text>
</svg>