<svg width="440" height="240" xmlns="http://www.w3.org/2000/svg">
  <style>
    .tech-label { font-family: Arial, sans-serif; font-size: 12px; fill: #333; text-anchor: start; }
    .percentage-label { font-family: Arial, sans-serif; font-size: 12px; fill: #666; text-anchor: end; }
    .bar-bg { fill: #e0e0e0; stroke: #ccc; stroke-width: 0.5; }
    .bar-fill { stroke: #fff; stroke-width: 0.5; }
  </style>
  
  <!-- 背景 -->
  <rect width="440" height="240" fill="#f8f9fa"/>
  
  <rect x="20" y="20" width="400" height="20" class="bar-bg"/>
  <rect x="20" y="20" width="340" height="20" fill="#F7DF1E" class="bar-fill"/>
  <rect x="20" y="45" width="400" height="20" class="bar-bg"/>
  <rect x="20" y="45" width="280" height="20" fill="#3776AB" class="bar-fill"/>
  <rect x="20" y="70" width="400" height="20" class="bar-bg"/>
  <rect x="20" y="70" width="240" height="20" fill="#3178C6" class="bar-fill"/>
  <rect x="20" y="95" width="400" height="20" class="bar-bg"/>
  <rect x="20" y="95" width="200" height="20" fill="#61DAFB" class="bar-fill"/>
  <rect x="20" y="120" width="400" height="20" class="bar-bg"/>
  <rect x="20" y="120" width="160" height="20" fill="#339933" class="bar-fill"/>
  <rect x="20" y="145" width="400" height="20" class="bar-bg"/>
  <rect x="20" y="145" width="120" height="20" fill="#2496ED" class="bar-fill"/>
  <rect x="20" y="170" width="400" height="20" class="bar-bg"/>
  <rect x="20" y="170" width="100" height="20" fill="#F05032" class="bar-fill"/>
  <rect x="20" y="195" width="400" height="20" class="bar-bg"/>
  <rect x="20" y="195" width="80" height="20" fill="#FF9900" class="bar-fill"/>
</svg>