<svg width="600" height="280" xmlns="http://www.w3.org/2000/svg">
  <style>
    .tech-label { font-family: Arial, sans-serif; font-size: 12px; fill: #333; text-anchor: start; }
    .percentage-label { font-family: Arial, sans-serif; font-size: 12px; fill: #666; text-anchor: end; }
    .bar-bg { fill: #e0e0e0; stroke: #ccc; stroke-width: 0.5; }
    .bar-fill { stroke: #fff; stroke-width: 0.5; }
  </style>
  
  <!-- 背景 -->
  <rect width="600" height="280" fill="#f8f9fa"/>
  
  <rect x="140" y="50" width="400" height="20" class="bar-bg"/>
  <rect x="140" y="50" width="340" height="20" fill="#F7DF1E" class="bar-fill"/>
  <rect x="140" y="80" width="400" height="20" class="bar-bg"/>
  <rect x="140" y="80" width="280" height="20" fill="#3776AB" class="bar-fill"/>
  <rect x="140" y="110" width="400" height="20" class="bar-bg"/>
  <rect x="140" y="110" width="240" height="20" fill="#3178C6" class="bar-fill"/>
  <rect x="140" y="140" width="400" height="20" class="bar-bg"/>
  <rect x="140" y="140" width="200" height="20" fill="#61DAFB" class="bar-fill"/>
  <rect x="140" y="170" width="400" height="20" class="bar-bg"/>
  <rect x="140" y="170" width="160" height="20" fill="#339933" class="bar-fill"/>
  <rect x="140" y="200" width="400" height="20" class="bar-bg"/>
  <rect x="140" y="200" width="120" height="20" fill="#2496ED" class="bar-fill"/>
  <rect x="140" y="230" width="400" height="20" class="bar-bg"/>
  <rect x="140" y="230" width="100" height="20" fill="#F05032" class="bar-fill"/>
  <rect x="140" y="260" width="400" height="20" class="bar-bg"/>
  <rect x="140" y="260" width="80" height="20" fill="#FF9900" class="bar-fill"/>
</svg>